<svg width="40" height="32" viewBox="0 0 40 32" fill="none" xmlns="http://www.w3.org/2000/svg">
<path d="M29 11.5C28.1333 11.5 27.4167 11.2167 26.85 10.65C26.2833 10.0833 26 9.36667 26 8.5C26 7.63333 26.2833 6.91667 26.85 6.35C27.4167 5.78333 28.1333 5.5 29 5.5C29.8667 5.5 30.5833 5.78333 31.15 6.35C31.7167 6.91667 32 7.63333 32 8.5C32 9.36667 31.7167 10.0833 31.15 10.65C30.5833 11.2167 29.8667 11.5 29 11.5ZM11 11.5C10.1333 11.5 9.41667 11.2167 8.85 10.65C8.28333 10.0833 8 9.36667 8 8.5C8 7.63333 8.28333 6.91667 8.85 6.35C9.41667 5.78333 10.1333 5.5 11 5.5C11.8667 5.5 12.5833 5.78333 13.15 6.35C13.7167 6.91667 14 7.63333 14 8.5C14 9.36667 13.7167 10.0833 13.15 10.65C12.5833 11.2167 11.8667 11.5 11 11.5ZM20 17C19.1333 17 18.4167 16.7167 17.85 16.15C17.2833 15.5833 17 14.8667 17 14C17 13.1333 17.2833 12.4167 17.85 11.85C18.4167 11.2833 19.1333 11 20 11C20.8667 11 21.5833 11.2833 22.15 11.85C22.7167 12.4167 23 13.1333 23 14C23 14.8667 22.7167 15.5833 22.15 16.15C21.5833 16.7167 20.8667 17 20 17ZM20 6C19.1333 6 18.4167 5.71667 17.85 5.15C17.2833 4.58333 17 3.86667 17 3C17 2.13333 17.2833 1.41667 17.85 0.85C18.4167 0.283333 19.1333 0 20 0C20.8667 0 21.5833 0.283333 22.15 0.85C22.7167 1.41667 23 2.13333 23 3C23 3.86667 22.7167 4.58333 22.15 5.15C21.5833 5.71667 20.8667 6 20 6ZM20 32C19.3667 32 18.7167 31.95 18.05 31.85C17.3833 31.75 16.7333 31.6167 16.1 31.45V24.25C16.1 23.0833 16.4667 22.0833 17.2 21.25C17.9333 20.4167 18.8667 20 20 20C21.1333 20 22.0667 20.4167 22.8 21.25C23.5333 22.0833 23.9 23.0833 23.9 24.25V31.45C23.2667 31.6167 22.6167 31.75 21.95 31.85C21.2833 31.95 20.6333 32 20 32ZM13.1 30.45C12.4667 30.1833 11.8333 29.8833 11.2 29.55C10.5667 29.2167 9.96667 28.85 9.4 28.45C8.46667 27.8167 7.725 26.9667 7.175 25.9C6.625 24.8333 6.35 23.6833 6.35 22.45C6.35 21.5833 6.26667 20.7583 6.1 19.975C5.93333 19.1917 5.6 18.4667 5.1 17.8C4.73333 17.4 4.09167 16.7667 3.175 15.9C2.25833 15.0333 1.41667 14.2167 0.65 13.45C0.216667 12.9833 0 12.4917 0 11.975C0 11.4583 0.216667 10.9833 0.65 10.55C1.11667 10.0833 1.58333 9.85 2.05 9.85C2.51667 9.85 2.98333 10.0833 3.45 10.55L11.15 17.8C11.7833 18.4 12.2667 19.1167 12.6 19.95C12.9333 20.7833 13.1 21.6333 13.1 22.5V30.45ZM26.9 30.45V22.5C26.9 21.6333 27.1083 20.7833 27.525 19.95C27.9417 19.1167 28.4667 18.4 29.1 17.8L36.55 10.55C36.95 10.1833 37.425 10 37.975 10C38.525 10 38.9833 10.1833 39.35 10.55C39.7833 10.9833 40 11.4583 40 11.975C40 12.4917 39.7833 12.9833 39.35 13.45C38.5833 14.2167 37.7417 15.0167 36.825 15.85C35.9083 16.6833 35.2667 17.3333 34.9 17.8C34.4 18.4667 34.0667 19.1917 33.9 19.975C33.7333 20.7583 33.65 21.5833 33.65 22.45C33.65 23.6833 33.375 24.8333 32.825 25.9C32.275 26.9667 31.5333 27.8167 30.6 28.45C30.0333 28.8167 29.4333 29.175 28.8 29.525C28.1667 29.875 27.5333 30.1833 26.9 30.45Z" fill="white"/>
</svg>
