<svg width="18" height="18" viewBox="0 0 18 18" fill="none" xmlns="http://www.w3.org/2000/svg">
<path d="M9 15.7312L8.23125 15.0375C6.90915 13.8235 5.81612 12.7762 4.95218 11.8957C4.08823 11.0152 3.4 10.2281 2.8875 9.53436C2.375 8.84061 2.01562 8.21249 1.80938 7.64999C1.60313 7.08749 1.5 6.51874 1.5 5.94374C1.5 4.8168 1.87813 3.87569 2.63438 3.12042C3.39062 2.36513 4.325 1.98749 5.4375 1.98749C6.15 1.98749 6.80938 2.15624 7.41563 2.49374C8.02188 2.83124 8.55 3.31874 9 3.95624C9.525 3.28124 10.0813 2.78436 10.6688 2.46561C11.2563 2.14686 11.8875 1.98749 12.5625 1.98749C13.675 1.98749 14.6094 2.36513 15.3656 3.12042C16.1219 3.87569 16.5 4.8168 16.5 5.94374C16.5 6.51874 16.3969 7.08749 16.1906 7.64999C15.9844 8.21249 15.625 8.84061 15.1125 9.53436C14.6 10.2281 13.9118 11.0152 13.0478 11.8957C12.1839 12.7762 11.0909 13.8235 9.76875 15.0375L9 15.7312ZM9 14.25C10.2655 13.0876 11.3068 12.0907 12.1241 11.2594C12.9414 10.4281 13.5906 9.69999 14.0719 9.07499C14.5531 8.44999 14.8906 7.89289 15.0844 7.40371C15.2781 6.91451 15.375 6.42876 15.375 5.94646C15.375 5.11964 15.1125 4.44061 14.5875 3.90936C14.0625 3.37811 13.3889 3.11249 12.5667 3.11249C11.9227 3.11249 11.3266 3.30936 10.7784 3.70311C10.2303 4.09686 9.7875 4.64999 9.45 5.36249H8.53125C8.20625 4.66249 7.76969 4.11249 7.22156 3.71249C6.67343 3.31249 6.07733 3.11249 5.43328 3.11249C4.61109 3.11249 3.9375 3.37811 3.4125 3.90936C2.8875 4.44061 2.625 5.12071 2.625 5.94966C2.625 6.43321 2.72188 6.92186 2.91563 7.41561C3.10938 7.90936 3.44688 8.47186 3.92813 9.10311C4.40938 9.73436 5.0625 10.4625 5.8875 11.2875C6.7125 12.1125 7.75 13.1 9 14.25Z" fill="white"/>
</svg>
