<svg width="22" height="19" viewBox="0 0 22 19" fill="none" xmlns="http://www.w3.org/2000/svg">
<path d="M1.65 19C1.21 19 0.825 18.8219 0.495 18.4656C0.165 18.1094 0 17.6938 0 17.2188V1.78125C0 1.30625 0.165 0.890625 0.495 0.534375C0.825 0.178125 1.21 0 1.65 0H20.35C20.79 0 21.175 0.178125 21.505 0.534375C21.835 0.890625 22 1.30625 22 1.78125V17.2188C22 17.6938 21.835 18.1094 21.505 18.4656C21.175 18.8219 20.79 19 20.35 19H1.65ZM11 10.0344L1.65 3.41406V17.2188H20.35V3.41406L11 10.0344ZM11 8.25313L20.24 1.78125H1.7875L11 8.25313ZM1.65 3.41406V1.78125V17.2188V3.41406Z" fill="white"/>
</svg>
