<svg width="25" height="20" viewBox="0 0 25 20" fill="none" xmlns="http://www.w3.org/2000/svg">
<path d="M3.90169 14.1666C3.67904 14.1666 3.49392 14.1064 3.34635 13.9859C3.19878 13.8654 3.125 13.7161 3.125 13.538C3.125 13.3599 3.2003 13.2118 3.35091 13.0937C3.50154 12.9757 3.68817 12.9166 3.91081 12.9166C4.13346 12.9166 4.31858 12.9769 4.46615 13.0974C4.61372 13.2179 4.6875 13.3672 4.6875 13.5453C4.6875 13.7234 4.6122 13.8715 4.46159 13.9896C4.31096 14.1076 4.12433 14.1666 3.90169 14.1666ZM3.90169 10.625C3.67904 10.625 3.49392 10.5647 3.34635 10.4443C3.19878 10.3238 3.125 10.1744 3.125 9.99633C3.125 9.81821 3.2003 9.67012 3.35091 9.55206C3.50154 9.43401 3.68817 9.37498 3.91081 9.37498C4.13346 9.37498 4.31858 9.43522 4.46615 9.55571C4.61372 9.67621 4.6875 9.82551 4.6875 10.0036C4.6875 10.1817 4.6122 10.3298 4.46159 10.4479C4.31096 10.566 4.12433 10.625 3.90169 10.625ZM3.90169 7.08331C3.67904 7.08331 3.49392 7.02307 3.34635 6.90258C3.19878 6.78208 3.125 6.63278 3.125 6.45467C3.125 6.27654 3.2003 6.12845 3.35091 6.0104C3.50154 5.89234 3.68817 5.83331 3.91081 5.83331C4.13346 5.83331 4.31858 5.89356 4.46615 6.01404C4.61372 6.13454 4.6875 6.28385 4.6875 6.46196C4.6875 6.64008 4.6122 6.78817 4.46159 6.90623C4.31096 7.02429 4.12433 7.08331 3.90169 7.08331ZM7.55208 14.1666V12.9166H21.875V14.1666H7.55208ZM7.55208 10.625V9.37498H21.875V10.625H7.55208ZM7.55208 7.08331V5.83331H21.875V7.08331H7.55208Z" fill="white"/>
</svg>
