<svg width="21" height="21" viewBox="0 0 21 21" fill="none" xmlns="http://www.w3.org/2000/svg">
<path d="M0.833374 17.7916V16.2291H3.37087V8.2604C3.37087 6.80206 3.86931 5.50432 4.86619 4.36717C5.86306 3.23001 7.17712 2.51387 8.80837 2.21873V1.46352C8.80837 1.06422 8.97452 0.734355 9.30681 0.473938C9.6391 0.213521 10.0368 0.083313 10.5 0.083313C10.9632 0.083313 11.361 0.213521 11.6933 0.473938C12.0256 0.734355 12.1917 1.06422 12.1917 1.46352V2.21873C13.823 2.51387 15.1421 3.23001 16.149 4.36717C17.1559 5.50432 17.6594 6.80206 17.6594 8.2604V16.2291H20.1667V17.7916H0.833374ZM10.5 20.9166C9.8556 20.9166 9.29171 20.7127 8.80837 20.3047C8.32504 19.8967 8.08337 19.4062 8.08337 18.8333H12.9167C12.9167 19.4062 12.6801 19.8967 12.2068 20.3047C11.7335 20.7127 11.1646 20.9166 10.5 20.9166ZM5.18337 16.2291H15.8469V8.2604C15.8469 6.97567 15.3334 5.88192 14.3063 4.97915C13.2792 4.07637 12.0205 3.62498 10.5302 3.62498C9.03997 3.62498 7.77626 4.07637 6.7391 4.97915C5.70195 5.88192 5.18337 6.97567 5.18337 8.2604V16.2291Z" fill="white"/>
</svg>
