<svg width="18" height="18" viewBox="0 0 18 18" fill="none" xmlns="http://www.w3.org/2000/svg">
<path d="M1.66875 13.3313L0.75 12.6562L4.275 7.03125L6.51696 9.65625L9.50625 4.81875L11.55 7.85625C11.35 7.88125 11.1562 7.92188 10.9688 7.97813C10.7812 8.03438 10.5938 8.1 10.4062 8.175L9.5625 6.88125L6.70206 11.55L4.425 8.90625L1.66875 13.3313ZM16.4438 17.25L13.9313 14.7375C13.6688 14.925 13.3844 15.0688 13.0781 15.1688C12.7719 15.2688 12.4563 15.3188 12.1313 15.3188C11.2458 15.3188 10.4932 15.0086 9.87343 14.3884C9.25364 13.7682 8.94375 13.0151 8.94375 12.129C8.94375 11.243 9.25386 10.4906 9.87409 9.87188C10.4943 9.25313 11.2474 8.94375 12.1335 8.94375C13.0195 8.94375 13.7719 9.25364 14.3906 9.87343C15.0094 10.4932 15.3188 11.2458 15.3188 12.1313C15.3188 12.4563 15.2656 12.7719 15.1594 13.0781C15.0531 13.3844 14.9125 13.6778 14.7375 13.9584L17.25 16.4438L16.4438 17.25ZM12.1286 14.1938C12.7054 14.1938 13.1938 13.9946 13.5938 13.5964C13.9938 13.1982 14.1938 12.7107 14.1938 12.1339C14.1938 11.5571 13.9946 11.0688 13.5964 10.6688C13.1982 10.2688 12.7107 10.0688 12.1339 10.0688C11.5571 10.0688 11.0688 10.2679 10.6688 10.6661C10.2688 11.0643 10.0688 11.5518 10.0688 12.1286C10.0688 12.7054 10.2679 13.1938 10.6661 13.5938C11.0643 13.9938 11.5518 14.1938 12.1286 14.1938ZM13.5188 8.04375C13.3313 7.96875 13.1375 7.91875 12.9375 7.89375C12.7375 7.86875 12.5312 7.84375 12.3188 7.81875L16.3313 1.5L17.25 2.175L13.5188 8.04375Z" fill="white"/>
</svg>
