<svg width="18" height="18" viewBox="0 0 18 18" fill="none" xmlns="http://www.w3.org/2000/svg">
<path d="M4.5 10.5H5.98125L10.7063 5.83125C10.7812 5.75625 10.8188 5.6625 10.8188 5.55C10.8188 5.4375 10.7812 5.34375 10.7063 5.26875L9.675 4.33125C9.6125 4.26875 9.53438 4.2375 9.44063 4.2375C9.34688 4.2375 9.26875 4.26875 9.20625 4.33125L4.5 9.1125V10.5ZM7.59375 10.5H13.5V9.375H8.71875L7.59375 10.5ZM1.5 16.5V2.625C1.5 2.325 1.6125 2.0625 1.8375 1.8375C2.0625 1.6125 2.325 1.5 2.625 1.5H15.375C15.675 1.5 15.9375 1.6125 16.1625 1.8375C16.3875 2.0625 16.5 2.325 16.5 2.625V12.375C16.5 12.675 16.3875 12.9375 16.1625 13.1625C15.9375 13.3875 15.675 13.5 15.375 13.5H4.5L1.5 16.5Z" fill="white"/>
</svg>
