<svg width="22" height="18" viewBox="0 0 22 18" fill="none" xmlns="http://www.w3.org/2000/svg">
<path d="M20.2167 17.2271L12.5458 11.2C11.9625 11.5973 11.2823 11.9066 10.5054 12.1282C9.72838 12.3497 8.90159 12.4604 8.025 12.4604C5.92185 12.4604 4.1419 11.8875 2.68514 10.7417C1.22838 9.59586 0.5 8.21322 0.5 6.59378C0.5 4.97433 1.22917 3.5917 2.6875 2.44586C4.14583 1.30003 5.91042 0.727112 7.98125 0.727112C10.0521 0.727112 11.8118 1.30003 13.2604 2.44586C14.709 3.5917 15.4333 4.97548 15.4333 6.59722C15.4333 7.25187 15.2972 7.88475 15.025 8.49586C14.7528 9.10697 14.3444 9.67989 13.8 10.2146L21.5 16.2188L20.2167 17.2271ZM7.99583 11.0854C9.57569 11.0854 10.9186 10.6462 12.0245 9.76774C13.1304 8.88927 13.6833 7.83128 13.6833 6.59378C13.6833 5.35628 13.1304 4.29829 12.0245 3.41982C10.9186 2.54135 9.57569 2.10211 7.99583 2.10211C6.39978 2.10211 5.04312 2.54135 3.92586 3.41982C2.80862 4.29829 2.25 5.35628 2.25 6.59378C2.25 7.83128 2.80862 8.88927 3.92586 9.76774C5.04312 10.6462 6.39978 11.0854 7.99583 11.0854Z" fill="white"/>
</svg>
